<mxfile host="app.diagrams.net" modified="2023-11-02T06:48:54.530Z" agent="Mozilla/5.0 (Windows NT 10.0; Win64; x64) AppleWebKit/537.36 (KHTML, like Gecko) Chrome/118.0.0.0 Safari/537.36" version="22.0.8" etag="Z5InSUT_q6d4wJlTmfNP" type="github">
  <diagram name="Page-1" id="nciky5mFep0qIrBcISYa">
    <mxGraphModel>
      <root>
        <mxCell id="0" />
        <mxCell id="1" parent="0" />
      </root>
    </mxGraphModel>
  </diagram>
</mxfile>
